<svg xmlns="http://www.w3.org/2000/svg" width="512" height="512" viewBox="0 0 512 512">
  <defs>
    <radialGradient id="glow" cx="36%" cy="28%" r="70%">
      <stop offset="0" stop-color="#fff7ad"/>
      <stop offset=".32" stop-color="#facc15"/>
      <stop offset=".68" stop-color="#b7791f"/>
      <stop offset="1" stop-color="#05070b"/>
    </radialGradient>
    <linearGradient id="bg" x1="82" y1="44" x2="438" y2="466">
      <stop offset="0" stop-color="#182033"/>
      <stop offset=".54" stop-color="#07111f"/>
      <stop offset="1" stop-color="#020617"/>
    </linearGradient>
  </defs>
  <rect width="512" height="512" rx="104" fill="url(#bg)"/>
  <circle cx="256" cy="244" r="158" fill="url(#glow)" opacity=".96"/>
  <path d="M256 70c23 82 78 128 156 150-85 23-136 78-156 222-20-144-71-199-156-222 78-22 133-68 156-150z" fill="#fff8bf"/>
  <path d="M256 136c15 48 48 79 96 94-52 16-83 51-96 139-13-88-44-123-96-139 48-15 81-46 96-94z" fill="#f59e0b"/>
  <circle cx="256" cy="244" r="174" fill="none" stroke="#fef3c7" stroke-width="12" opacity=".76"/>
  <circle cx="256" cy="244" r="194" fill="none" stroke="#05070b" stroke-width="18" opacity=".72"/>
  <text x="256" y="450" text-anchor="middle" font-family="Arial, Helvetica, sans-serif" font-size="62" font-weight="900" fill="#f8fafc">LL</text>
</svg>
