<svg xmlns="http://www.w3.org/2000/svg" width="64" height="64" viewBox="0 0 64 64">
  <defs>
    <radialGradient id="g" cx="36%" cy="30%" r="72%">
      <stop offset="0" stop-color="#fff7ad"/>
      <stop offset=".35" stop-color="#facc15"/>
      <stop offset=".68" stop-color="#b45309"/>
      <stop offset="1" stop-color="#1f1304"/>
    </radialGradient>
    <linearGradient id="r" x1="14" y1="10" x2="51" y2="55">
      <stop offset="0" stop-color="#fff3a3"/>
      <stop offset=".45" stop-color="#d97706"/>
      <stop offset="1" stop-color="#422006"/>
    </linearGradient>
  </defs>
  <circle cx="32" cy="32" r="30" fill="#05070b"/>
  <circle cx="32" cy="32" r="27" fill="url(#r)"/>
  <circle cx="32" cy="32" r="22" fill="url(#g)"/>
  <path d="M32 10c3 10 10 15 18 18-9 2-15 8-18 26-3-18-9-24-18-26 8-3 15-8 18-18z" fill="#fff8bf" opacity=".92"/>
  <path d="M32 17c2 6 6 10 12 12-6 2-10 6-12 17-2-11-6-15-12-17 6-2 10-6 12-12z" fill="#f59e0b"/>
  <circle cx="32" cy="32" r="28" fill="none" stroke="#111827" stroke-width="3"/>
  <circle cx="32" cy="32" r="25" fill="none" stroke="#fef3c7" stroke-width="2" opacity=".85"/>
</svg>
